<svg xmlns="http://www.w3.org/2000/svg" viewBox="0 0 100 100" width="100" height="100">
  <!-- 企鹅身体 -->
  <ellipse cx="50" cy="55" rx="28" ry="35" fill="#2C3E50"/>
  
  <!-- 企鹅肚子 -->
  <ellipse cx="50" cy="60" rx="18" ry="25" fill="#ECF0F1"/>
  
  <!-- 企鹅头 -->
  <circle cx="50" cy="28" r="20" fill="#2C3E50"/>
  
  <!-- 企鹅脸部 -->
  <ellipse cx="50" cy="30" rx="16" ry="14" fill="#ECF0F1"/>
  
  <!-- 眼睛背景 -->
  <ellipse cx="43" cy="26" rx="5" ry="6" fill="white"/>
  <ellipse cx="57" cy="26" rx="5" ry="6" fill="white"/>
  
  <!-- 眼珠 -->
  <circle cx="44" cy="27" r="3" fill="#2C3E50"/>
  <circle cx="56" cy="27" r="3" fill="#2C3E50"/>
  
  <!-- 眼睛高光 -->
  <circle cx="45" cy="25.5" r="1.5" fill="white"/>
  <circle cx="57" cy="25.5" r="1.5" fill="white"/>
  
  <!-- 嘴巴（橙色） -->
  <path d="M 48 32 Q 50 34 52 32" fill="none" stroke="#E67E22" stroke-width="1.5"/>
  <ellipse cx="50" cy="32" rx="3" ry="2" fill="#E67E22"/>
  
  <!-- 左翅膀 -->
  <ellipse cx="24" cy="50" rx="8" ry="20" fill="#34495E" transform="rotate(-20 24 50)"/>
  
  <!-- 右翅膀 -->
  <ellipse cx="76" cy="50" rx="8" ry="20" fill="#34495E" transform="rotate(20 76 50)"/>
  
  <!-- 左脚 -->
  <ellipse cx="40" cy="88" rx="8" ry="5" fill="#E67E22"/>
  
  <!-- 右脚 -->
  <ellipse cx="60" cy="88" rx="8" ry="5" fill="#E67E22"/>
  
  <!-- 腮红 -->
  <ellipse cx="35" cy="32" rx="4" ry="3" fill="#E74C3C" opacity="0.3"/>
  <ellipse cx="65" cy="32" rx="4" ry="3" fill="#E74C3C" opacity="0.3"/>
  
  <!-- 头顶毛 -->
  <path d="M 45 12 Q 48 8 50 12 Q 52 8 55 12" fill="none" stroke="#2C3E50" stroke-width="2" stroke-linecap="round"/>
</svg>

